<?xml version="1.0" encoding="utf-8"?>
<!-- Generator: Adobe Illustrator 15.0.0, SVG Export Plug-In . SVG Version: 6.00 Build 0)  -->
<!DOCTYPE svg PUBLIC "-//W3C//DTD SVG 1.1//EN" "http://www.w3.org/Graphics/SVG/1.1/DTD/svg11.dtd">
<svg version="1.1" id="Layer_1" xmlns="http://www.w3.org/2000/svg" xmlns:xlink="http://www.w3.org/1999/xlink" x="0px" y="0px"
	 width="500px" height="245.729px" viewBox="0 0 500 245.729" enable-background="new 0 0 500 245.729" xml:space="preserve">
<path fill="#999999" d="M118.592,113.305c0-1.73-1.429-3.143-3.176-3.143c-0.873,0-1.667,0.351-2.238,0.921l-13.64,11.735v-9.511
	c0-1.733-1.429-3.146-3.175-3.146c-0.874,0-1.665,0.351-2.238,0.92l-13.639,11.736v-9.511c0-1.733-1.429-3.146-3.175-3.146
	c-0.874,0-1.667,0.351-2.239,0.92L61.29,122.928L58.257,88.25c0-1.938-1.556-3.493-3.493-3.493h-5.716
	c-1.938,0-3.493,1.556-3.493,3.493l-3.176,66.37c0,3.5,2.8,6.4,6.4,6.351h63.513c3.508,0,6.351-2.843,6.351-6.351L118.592,113.305
	L118.592,113.305z M72.547,133.773v3.587c0,1.635-1.333,2.97-2.97,2.97H65.99c-1.636,0-2.97-1.334-2.97-2.97v-3.587
	c0-1.635,1.333-2.97,2.97-2.97h3.589c1.634-0.003,2.921,1.297,2.921,2.97H72.547z M91.599,133.773v3.587
	c0,1.635-1.332,2.97-2.967,2.97h-3.59c-1.635,0-2.967-1.334-2.967-2.97v-3.587c0-1.635,1.332-2.97,2.967-2.97h3.59
	C90.267,130.8,91.6,132.1,91.599,133.773L91.599,133.773z M110.653,133.773v3.587c0,1.635-1.333,2.97-2.967,2.97h-3.59
	c-1.635,0-2.97-1.334-2.97-2.97v-3.587c0-1.635,1.335-2.97,2.97-2.97h3.59c1.634-0.003,3.014,1.297,3.014,2.97H110.653z"/>
<path fill="#999999" d="M203.349,113.305c0-1.73-1.429-3.143-3.176-3.143c-0.873,0-1.667,0.351-2.238,0.921l-13.64,11.735v-9.511
	c0-1.733-1.429-3.146-3.175-3.146c-0.874,0-1.665,0.351-2.238,0.92l-13.639,11.736v-9.511c0-1.733-1.429-3.146-3.175-3.146
	c-0.874,0-1.667,0.351-2.239,0.92l-13.782,11.845l-3.033-34.677c0-1.938-1.556-3.493-3.493-3.493h-5.716
	c-1.938,0-3.493,1.556-3.493,3.493l-3.176,66.37c0,3.5,2.8,6.4,6.4,6.351H197c3.508,0,6.351-2.843,6.351-6.351L203.349,113.305
	L203.349,113.305z M157.304,133.773v3.587c0,1.635-1.333,2.97-2.97,2.97h-3.587c-1.636,0-2.97-1.334-2.97-2.97v-3.587
	c0-1.635,1.333-2.97,2.97-2.97h3.589c1.634-0.003,2.964,1.297,2.964,2.97H157.304z M176.356,133.773v3.587
	c0,1.635-1.332,2.97-2.967,2.97h-3.59c-1.635,0-2.967-1.334-2.967-2.97v-3.587c0-1.635,1.332-2.97,2.967-2.97h3.59
	c1.635-0.003,3.011,1.297,3.011,2.97H176.356z M195.41,133.773v3.587c0,1.635-1.333,2.97-2.967,2.97h-3.59
	c-1.635,0-2.97-1.334-2.97-2.97v-3.587c0-1.635,1.335-2.97,2.97-2.97h3.59c1.634-0.003,2.957,1.297,2.957,2.97H195.41z"/>
<path fill="#999999" d="M288.105,113.305c0-1.73-1.431-3.143-3.176-3.143c-0.873,0-1.668,0.351-2.238,0.921l-13.641,11.735v-9.511
	c0-1.733-1.429-3.146-3.175-3.146c-0.874,0-1.666,0.351-2.237,0.92L250,122.818v-9.511c0-1.733-1.429-3.146-3.175-3.146
	c-0.874,0-1.667,0.351-2.239,0.92l-13.782,11.845l-3.033-34.677c0-1.938-1.556-3.493-3.493-3.493h-5.716
	c-1.938,0-3.493,1.556-3.493,3.493l-3.176,66.37c0,3.5,2.8,6.4,6.4,6.351h63.514c3.508,0,6.351-2.843,6.351-6.351L288.105,113.305
	L288.105,113.305z M242.061,133.773v3.587c0,1.635-1.333,2.97-2.97,2.97h-3.587c-1.636,0-2.97-1.334-2.97-2.97v-3.587
	c0-1.635,1.333-2.97,2.97-2.97h3.589c1.634-0.003,3.007,1.297,3.007,2.97H242.061z M261.113,133.773v3.587
	c0,1.635-1.332,2.97-2.969,2.97h-3.59c-1.635,0-2.967-1.334-2.967-2.97v-3.587c0-1.635,1.332-2.97,2.967-2.97h3.59
	c1.637-0.003,2.955,1.297,2.955,2.97H261.113z M280.166,133.773v3.587c0,1.635-1.332,2.97-2.967,2.97h-3.59
	c-1.635,0-2.971-1.334-2.971-2.97v-3.587c0-1.635,1.336-2.97,2.971-2.97h3.59c1.635-0.003,3.001,1.297,3.001,2.97H280.166z"/>
<path fill="#999999" d="M372.862,113.305c0-1.73-1.43-3.143-3.177-3.143c-0.872,0-1.666,0.351-2.236,0.921l-13.641,11.735v-9.511
	c0-1.733-1.43-3.146-3.176-3.146c-0.873,0-1.665,0.351-2.238,0.92l-13.639,11.736v-9.511c0-1.733-1.429-3.146-3.176-3.146
	c-0.873,0-1.667,0.351-2.238,0.92l-13.782,11.845l-3.031-34.677c0-1.938-1.558-3.493-3.494-3.493h-5.716
	c-1.938,0-3.493,1.556-3.493,3.493l-3.177,66.37c0,3.5,2.801,6.4,6.4,6.351h63.514c3.509,0,6.352-2.843,6.352-6.351L372.862,113.305
	L372.862,113.305z M326.817,133.773v3.587c0,1.635-1.333,2.97-2.97,2.97h-3.588c-1.637,0-2.97-1.334-2.97-2.97v-3.587
	c0-1.635,1.333-2.97,2.97-2.97h3.589c1.636-0.003,2.951,1.297,2.951,2.97H326.817z M345.87,133.773v3.587
	c0,1.635-1.332,2.97-2.967,2.97h-3.591c-1.635,0-2.967-1.334-2.967-2.97v-3.587c0-1.635,1.332-2.97,2.967-2.97h3.591
	c1.635-0.003,2.997,1.297,2.997,2.97H345.87z M364.924,133.773v3.587c0,1.635-1.333,2.97-2.968,2.97h-3.59
	c-1.635,0-2.969-1.334-2.969-2.97v-3.587c0-1.635,1.334-2.97,2.969-2.97h3.59c1.635-0.003,2.944,1.297,2.944,2.97H364.924z"/>
<path id="carbon5" fill="#999999" d="M457.619,113.305c0-1.73-1.43-3.143-3.176-3.143c-0.873,0-1.666,0.351-2.238,0.921l-13.639,11.735v-9.511
	c0-1.733-1.431-3.146-3.177-3.146c-0.873,0-1.666,0.351-2.237,0.92l-13.64,11.736v-9.511c0-1.733-1.43-3.146-3.176-3.146
	c-0.873,0-1.668,0.351-2.238,0.92l-13.782,11.845l-3.031-34.677c0-1.938-1.558-3.493-3.494-3.493h-5.715
	c-1.939,0-3.494,1.556-3.494,3.493l-3.176,66.37c0,3.5,2.8,6.4,6.399,6.351h63.515c3.508,0,6.35-2.843,6.35-6.351L457.619,113.305
	L457.619,113.305z M411.574,133.773v3.587c0,1.635-1.334,2.97-2.969,2.97h-3.589c-1.637,0-2.971-1.334-2.971-2.97v-3.587
	c0-1.635,1.334-2.97,2.971-2.97h3.589c1.635-0.003,2.994,1.297,2.994,2.97H411.574z M430.627,133.773v3.587
	c0,1.635-1.332,2.97-2.967,2.97h-3.59c-1.636,0-2.968-1.334-2.968-2.97v-3.587c0-1.635,1.332-2.97,2.968-2.97h3.59
	c1.635-0.003,2.939,1.297,2.939,2.97H430.627z M449.68,133.773v3.587c0,1.635-1.332,2.97-2.967,2.97h-3.59
	c-1.635,0-2.969-1.334-2.969-2.97v-3.587c0-1.635,1.334-2.97,2.969-2.97h3.59c1.635-0.003,2.987,1.297,2.987,2.97H449.68z"/>
<path fill="#999999" d="M76.213,28.548c0-1.73-1.429-3.143-3.176-3.143c-0.873,0-1.667,0.351-2.238,0.921l-13.64,11.735V28.55
	c0-1.733-1.429-3.146-3.175-3.146c-0.874,0-1.665,0.351-2.238,0.92L38.107,38.061V28.55c0-1.733-1.429-3.146-3.175-3.146
	c-0.874,0-1.667,0.351-2.239,0.92L18.911,38.17L15.878,3.493C15.878,1.6,14.3,0,12.4,0H6.669C4.731,0,3.2,1.6,3.2,3.5L0,69.863
	c0,3.5,2.8,6.4,6.4,6.351h63.513c3.508,0,6.351-2.843,6.351-6.351L76.213,28.548L76.213,28.548z M30.168,49v3.587
	c0,1.635-1.333,2.97-2.97,2.97h-3.587c-1.636,0-2.97-1.334-2.97-2.97V49c0-1.635,1.333-2.97,2.97-2.97H27.2
	c1.634-0.03,3,1.37,3,2.986L30.168,49z M49.22,49.016v3.587c0,1.635-1.332,2.97-2.967,2.97h-3.59c-1.635,0-2.967-1.334-2.967-2.97
	v-3.587c0-1.635,1.332-2.97,2.967-2.97h3.59C47.888,46,49.2,47.4,49.2,49.016H49.22z M68.274,49.016v3.587
	c0,1.635-1.333,2.97-2.967,2.97h-3.59c-1.635,0-2.97-1.334-2.97-2.97v-3.587c0-1.635,1.335-2.97,2.97-2.97h3.59
	C66.941,46,68.3,47.4,68.3,49.016H68.274z"/>
<path fill="#999999" d="M160.97,28.548c0-1.73-1.429-3.143-3.176-3.143c-0.873,0-1.667,0.351-2.238,0.921l-13.64,11.735V28.55
	c0-1.733-1.429-3.146-3.175-3.146c-0.874,0-1.665,0.351-2.238,0.92L122.864,38.06v-9.51c0-1.733-1.429-3.146-3.175-3.146
	c-0.874,0-1.667,0.351-2.239,0.92L103.667,38.17l-3.033-34.677c0-1.938-1.556-3.493-3.493-3.493h-5.716
	c-1.938,0-3.493,1.556-3.493,3.493l-3.176,66.37c0,3.5,2.8,6.4,6.4,6.351h63.513c3.508,0,6.351-2.843,6.351-6.351L160.97,28.548
	L160.97,28.548z M114.925,49.016v3.587c0,1.635-1.333,2.97-2.97,2.97h-3.587c-1.636,0-2.97-1.334-2.97-2.97v-3.587
	c0-1.635,1.333-2.97,2.97-2.97h3.589c1.634-0.046,2.943,1.354,2.943,2.97H114.925z M133.977,49.016v3.587
	c0,1.635-1.332,2.97-2.967,2.97h-3.59c-1.635,0-2.967-1.334-2.967-2.97v-3.587c0-1.635,1.332-2.97,2.967-2.97h3.59
	C132.645,46,134,47.4,134,49.016H133.977z M153.031,49.016v3.587c0,1.635-1.333,2.97-2.967,2.97h-3.59
	c-1.635,0-2.97-1.334-2.97-2.97v-3.587c0-1.635,1.335-2.97,2.97-2.97h3.59C151.698,46,153,47.4,153,49.016H153.031z"/>
<path fill="#999999" d="M245.727,28.548c0-1.73-1.429-3.143-3.176-3.143c-0.873,0-1.667,0.351-2.238,0.921l-13.64,11.735V28.55
	c0-1.733-1.429-3.146-3.175-3.146c-0.874,0-1.665,0.351-2.238,0.92L207.621,38.06v-9.51c0-1.733-1.429-3.146-3.175-3.146
	c-0.874,0-1.667,0.351-2.239,0.92L188.424,38.17l-3.033-34.677c0-1.938-1.556-3.493-3.493-3.493h-5.716
	c-1.938,0-3.493,1.556-3.493,3.493l-3.176,66.37c0,3.5,2.8,6.4,6.4,6.351h63.513c3.508,0,6.351-2.843,6.351-6.351L245.727,28.548
	L245.727,28.548z M199.682,49.016v3.587c0,1.635-1.333,2.97-2.97,2.97h-3.587c-1.636,0-2.97-1.334-2.97-2.97v-3.587
	c0-1.635,1.333-2.97,2.97-2.97h3.589c1.634-0.046,2.986,1.354,2.986,2.97H199.682z M218.734,49.016v3.587
	c0,1.635-1.332,2.97-2.967,2.97h-3.59c-1.635,0-2.967-1.334-2.967-2.97v-3.587c0-1.635,1.332-2.97,2.967-2.97h3.59
	c1.635-0.046,2.933,1.354,2.933,2.97H218.734z M237.788,49.016v3.587c0,1.635-1.333,2.97-2.967,2.97h-3.59
	c-1.635,0-2.97-1.334-2.97-2.97v-3.587c0-1.635,1.335-2.97,2.97-2.97h3.59c1.634-0.046,2.979,1.354,2.979,2.97H237.788z"/>
<path fill="#999999" d="M330.483,28.548c0-1.73-1.43-3.143-3.177-3.143c-0.873,0-1.666,0.351-2.236,0.921L311.43,38.061V28.55
	c0-1.733-1.43-3.146-3.176-3.146c-0.873,0-1.665,0.351-2.238,0.92L292.377,38.06v-9.51c0-1.733-1.429-3.146-3.176-3.146
	c-0.873,0-1.667,0.351-2.238,0.92L273.182,38.17L270.15,3.493c0-1.938-1.558-3.493-3.494-3.493h-5.715
	c-1.938,0-3.494,1.556-3.494,3.493l-3.176,66.37c0,3.5,2.799,6.4,6.399,6.351h63.514c3.509,0,6.352-2.843,6.352-6.351
	L330.483,28.548L330.483,28.548z M284.438,49.016v3.587c0,1.635-1.332,2.97-2.969,2.97h-3.588c-1.637,0-2.97-1.334-2.97-2.97v-3.587
	c0-1.635,1.333-2.97,2.97-2.97h3.589c1.636-0.046,2.931,1.354,2.931,2.97H284.438z M303.491,49.016v3.587
	c0,1.635-1.332,2.97-2.968,2.97h-3.59c-1.635,0-2.967-1.334-2.967-2.97v-3.587c0-1.635,1.332-2.97,2.967-2.97h3.59
	c1.636-0.046,2.977,1.354,2.977,2.97H303.491z M322.545,49.016v3.587c0,1.635-1.333,2.97-2.968,2.97h-3.59
	c-1.636,0-2.97-1.334-2.97-2.97v-3.587c0-1.635,1.334-2.97,2.97-2.97h3.59c1.635-0.046,2.923,1.354,2.923,2.97H322.545z"/>
<path fill="#999999" d="M415.24,28.548c0-1.73-1.431-3.143-3.176-3.143c-0.873,0-1.666,0.351-2.238,0.921l-13.64,11.735V28.55
	c0-1.733-1.43-3.146-3.176-3.146c-0.873,0-1.666,0.351-2.237,0.92l-13.64,11.736v-9.51c0-1.733-1.43-3.146-3.176-3.146
	c-0.873,0-1.668,0.351-2.238,0.92L357.938,38.17l-3.03-34.677c0-1.938-1.558-3.493-3.494-3.493h-5.715
	c-1.939,0-3.494,1.556-3.494,3.493l-3.176,66.37c0,3.5,2.8,6.4,6.399,6.351h63.515c3.508,0,6.35-2.843,6.35-6.351L415.24,28.548
	L415.24,28.548z M369.195,49.016v3.587c0,1.635-1.334,2.97-2.97,2.97h-3.588c-1.637,0-2.971-1.334-2.971-2.97v-3.587
	c0-1.635,1.334-2.97,2.971-2.97h3.588c1.636-0.046,2.975,1.354,2.975,2.97H369.195z M388.248,49.016v3.587
	c0,1.635-1.332,2.97-2.967,2.97h-3.59c-1.636,0-2.968-1.334-2.968-2.97v-3.587c0-1.635,1.332-2.97,2.968-2.97h3.59
	c1.635-0.046,2.919,1.354,2.919,2.97H388.248z M407.301,49.016v3.587c0,1.635-1.332,2.97-2.967,2.97h-3.59
	c-1.635,0-2.969-1.334-2.969-2.97v-3.587c0-1.635,1.334-2.97,2.969-2.97h3.59C405.969,46,407.3,47.4,407.301,49.016L407.301,49.016z
	"/>
<path fill="#999999" d="M499.998,28.548c0-1.73-1.43-3.143-3.176-3.143c-0.873,0-1.666,0.351-2.238,0.921l-13.639,11.735V28.55
	c0-1.733-1.431-3.146-3.177-3.146c-0.872,0-1.666,0.351-2.237,0.92l-13.64,11.736v-9.51c0-1.733-1.43-3.146-3.176-3.146
	c-0.873,0-1.668,0.351-2.238,0.92L442.695,38.17l-3.031-34.677c0-1.938-1.557-3.493-3.494-3.493h-5.715
	c-1.939,0-3.494,1.556-3.494,3.493l-3.176,66.37c0,3.5,2.8,6.4,6.399,6.351h63.515c3.508,0,6.35-2.843,6.35-6.351L499.998,28.548
	L499.998,28.548z M453.953,49.016v3.587c0,1.635-1.334,2.97-2.969,2.97h-3.588c-1.638,0-2.972-1.334-2.972-2.97v-3.587
	c0-1.635,1.334-2.97,2.972-2.97h3.588C452.619,46,454,47.4,454,49.016H453.953z M473.006,49.016v3.587
	c0,1.635-1.332,2.97-2.967,2.97h-3.59c-1.635,0-2.967-1.334-2.967-2.97v-3.587c0-1.635,1.332-2.97,2.967-2.97h3.59
	C471.674,46,473,47.4,473,49.016H473.006z M492.059,49.016v3.587c0,1.635-1.332,2.97-2.967,2.97h-3.59
	c-1.635,0-2.969-1.334-2.969-2.97v-3.587c0-1.635,1.334-2.97,2.969-2.97h3.59c1.635-0.046,3.008,1.354,3.008,2.97H492.059z"/>
<path fill="#999999" d="M76.213,198.062c0-1.73-1.429-3.143-3.176-3.143c-0.873,0-1.667,0.351-2.238,0.921l-13.64,11.735v-9.511
	c0-1.733-1.429-3.146-3.175-3.146c-0.874,0-1.665,0.351-2.238,0.92l-13.639,11.736v-9.511c0-1.733-1.429-3.146-3.175-3.146
	c-0.874,0-1.667,0.351-2.239,0.92l-13.782,11.845l-3.033-34.677c0-1.938-1.556-3.493-3.493-3.493H6.669
	c-1.938,0-3.493,1.556-3.493,3.493L0,239.377c0,3.5,2.8,6.4,6.4,6.351h63.513c3.508,0,6.351-2.843,6.351-6.351L76.213,198.062
	L76.213,198.062z M30.168,218.53v3.587c0,1.635-1.333,2.97-2.97,2.97h-3.587c-1.636,0-2.97-1.334-2.97-2.97v-3.587
	c0-1.635,1.333-2.97,2.97-2.97H27.2c1.634,0.04,3,1.34,3,2.97H30.168z M49.22,218.53v3.587c0,1.635-1.332,2.97-2.967,2.97h-3.59
	c-1.635,0-2.967-1.334-2.967-2.97v-3.587c0-1.635,1.332-2.97,2.967-2.97h3.59c1.635,0.04,2.947,1.34,2.947,2.97H49.22z
	 M68.274,218.53v3.587c0,1.635-1.333,2.97-2.967,2.97h-3.59c-1.635,0-2.97-1.334-2.97-2.97v-3.587c0-1.635,1.335-2.97,2.97-2.97
	h3.59c1.634,0.04,2.993,1.34,2.993,2.97H68.274z"/>
<path fill="#999999" d="M160.97,198.062c0-1.73-1.429-3.143-3.176-3.143c-0.873,0-1.667,0.351-2.238,0.921l-13.64,11.735v-9.511
	c0-1.733-1.429-3.146-3.175-3.146c-0.874,0-1.665,0.351-2.238,0.92l-13.639,11.736v-9.511c0-1.733-1.429-3.146-3.175-3.146
	c-0.874,0-1.667,0.351-2.239,0.92l-13.782,11.845l-3.033-34.677c0-1.938-1.556-3.493-3.493-3.493h-5.716
	c-1.938,0-3.493,1.556-3.493,3.493l-3.176,66.37c0,3.5,2.8,6.4,6.4,6.351h63.513c3.508,0,6.351-2.843,6.351-6.351L160.97,198.062
	L160.97,198.062z M114.925,218.53v3.587c0,1.635-1.333,2.97-2.97,2.97h-3.587c-1.636,0-2.97-1.334-2.97-2.97v-3.587
	c0-1.635,1.333-2.97,2.97-2.97h3.589c1.634,0.04,2.943,1.34,2.943,2.97H114.925z M133.977,218.53v3.587
	c0,1.635-1.332,2.97-2.967,2.97h-3.59c-1.635,0-2.967-1.334-2.967-2.97v-3.587c0-1.635,1.332-2.97,2.967-2.97h3.59
	c1.635,0.04,2.99,1.34,2.99,2.97H133.977z M153.031,218.53v3.587c0,1.635-1.333,2.97-2.967,2.97h-3.59
	c-1.635,0-2.97-1.334-2.97-2.97v-3.587c0-1.635,1.335-2.97,2.97-2.97h3.59c1.634,0.04,2.936,1.34,2.936,2.97H153.031z"/>
<path id="carbon4" fill="#999999" d="M245.727,198.062c0-1.73-1.429-3.143-3.176-3.143c-0.873,0-1.667,0.351-2.238,0.921l-13.64,11.735v-9.511
	c0-1.733-1.429-3.146-3.175-3.146c-0.874,0-1.665,0.351-2.238,0.92l-13.639,11.736v-9.511c0-1.733-1.429-3.146-3.175-3.146
	c-0.874,0-1.667,0.351-2.239,0.92l-13.782,11.845l-3.033-34.677c0-1.938-1.556-3.493-3.493-3.493h-5.716
	c-1.938,0-3.493,1.556-3.493,3.493l-3.176,66.37c0,3.5,2.8,6.4,6.4,6.351h63.513c3.508,0,6.351-2.843,6.351-6.351L245.727,198.062
	L245.727,198.062z M199.682,218.53v3.587c0,1.635-1.333,2.97-2.97,2.97h-3.587c-1.636,0-2.97-1.334-2.97-2.97v-3.587
	c0-1.635,1.333-2.97,2.97-2.97h3.589c1.634,0.04,2.986,1.34,2.986,2.97H199.682z M218.734,218.53v3.587
	c0,1.635-1.332,2.97-2.967,2.97h-3.59c-1.635,0-2.967-1.334-2.967-2.97v-3.587c0-1.635,1.332-2.97,2.967-2.97h3.59
	c1.635,0.04,2.933,1.34,2.933,2.97H218.734z M237.788,218.53v3.587c0,1.635-1.333,2.97-2.967,2.97h-3.59
	c-1.635,0-2.97-1.334-2.97-2.97v-3.587c0-1.635,1.335-2.97,2.97-2.97h3.59c1.634,0.04,2.979,1.34,2.979,2.97H237.788z"/>
<path id="carbon3" fill="#999999" d="M330.483,198.062c0-1.73-1.43-3.143-3.177-3.143c-0.873,0-1.666,0.351-2.236,0.921l-13.641,11.735v-9.511
	c0-1.733-1.43-3.146-3.176-3.146c-0.873,0-1.665,0.351-2.238,0.92l-13.639,11.736v-9.511c0-1.733-1.429-3.146-3.176-3.146
	c-0.873,0-1.667,0.351-2.238,0.92l-13.781,11.845l-3.033-34.677c0-1.938-1.557-3.493-3.494-3.493h-5.715
	c-1.938,0-3.494,1.556-3.494,3.493l-3.176,66.37c0,3.5,2.801,6.4,6.4,6.351h63.514c3.509,0,6.352-2.843,6.352-6.351L330.483,198.062
	L330.483,198.062z M284.438,218.53v3.587c0,1.635-1.332,2.97-2.969,2.97h-3.588c-1.637,0-2.97-1.334-2.97-2.97v-3.587
	c0-1.635,1.333-2.97,2.97-2.97h3.589c1.636,0.04,2.931,1.34,2.931,2.97H284.438z M303.491,218.53v3.587
	c0,1.635-1.332,2.97-2.968,2.97h-3.59c-1.635,0-2.967-1.334-2.967-2.97v-3.587c0-1.635,1.332-2.97,2.967-2.97h3.59
	c1.636,0.04,2.977,1.34,2.977,2.97H303.491z M322.545,218.53v3.587c0,1.635-1.333,2.97-2.968,2.97h-3.59
	c-1.636,0-2.97-1.334-2.97-2.97v-3.587c0-1.635,1.334-2.97,2.97-2.97h3.59c1.635,0.04,2.923,1.34,2.923,2.97H322.545z"/>
<path id="carbon2" fill="#999999" d="M415.24,198.062c0-1.73-1.431-3.143-3.176-3.143c-0.873,0-1.666,0.351-2.238,0.921l-13.64,11.735v-9.511
	c0-1.733-1.43-3.146-3.176-3.146c-0.873,0-1.666,0.351-2.237,0.92l-13.64,11.736v-9.511c0-1.733-1.43-3.146-3.176-3.146
	c-0.873,0-1.668,0.351-2.238,0.92l-13.783,11.845l-3.03-34.677c0-1.938-1.558-3.493-3.494-3.493h-5.715
	c-1.939,0-3.494,1.556-3.494,3.493l-3.176,66.37c0,3.5,2.8,6.4,6.399,6.351h63.515c3.508,0,6.35-2.843,6.35-6.351L415.24,198.062
	L415.24,198.062z M369.195,218.53v3.587c0,1.635-1.334,2.97-2.97,2.97h-3.588c-1.637,0-2.971-1.334-2.971-2.97v-3.587
	c0-1.635,1.334-2.97,2.971-2.97h3.588c1.636,0.04,2.975,1.34,2.975,2.97H369.195z M388.248,218.53v3.587
	c0,1.635-1.332,2.97-2.967,2.97h-3.59c-1.636,0-2.968-1.334-2.968-2.97v-3.587c0-1.635,1.332-2.97,2.968-2.97h3.59
	c1.635,0.04,2.919,1.34,2.919,2.97H388.248z M407.301,218.53v3.587c0,1.635-1.332,2.97-2.967,2.97h-3.59
	c-1.635,0-2.969-1.334-2.969-2.97v-3.587c0-1.635,1.334-2.97,2.969-2.97h3.59C405.969,215.6,407.3,216.9,407.301,218.53
	L407.301,218.53z"/>
<path id="carbon1" fill="#999999" d="M499.998,198.062c0-1.73-1.43-3.143-3.176-3.143c-0.873,0-1.666,0.351-2.238,0.9
	l-13.639,11.735v-9.511c0-1.733-1.431-3.146-3.177-3.146c-0.872,0-1.666,0.351-2.237,0.92l-13.64,11.736v-9.511
	c0-1.733-1.43-3.146-3.176-3.146c-0.873,0-1.668,0.351-2.238,0.92l-13.782,11.845l-3.031-34.677c0-1.938-1.557-3.493-3.494-3.493
	h-5.715c-1.939,0-3.494,1.556-3.494,3.493l-3.176,66.37c0,3.5,2.8,6.4,6.399,6.351h63.515c3.508,0,6.35-2.843,6.35-6.351
	L499.998,198.062L499.998,198.062z M453.953,218.53v3.587c0,1.635-1.334,2.97-2.969,2.97h-3.588c-1.638,0-2.972-1.334-2.972-2.97
	v-3.587c0-1.635,1.334-2.97,2.972-2.97h3.588c1.635,0.04,3.016,1.34,3.016,2.97H453.953z M473.006,218.53v3.587
	c0,1.635-1.332,2.97-2.967,2.97h-3.59c-1.635,0-2.967-1.334-2.967-2.97v-3.587c0-1.635,1.332-2.97,2.967-2.97h3.59
	c1.635,0.04,2.961,1.34,2.961,2.97H473.006z M492.059,218.53v3.587c0,1.635-1.332,2.97-2.967,2.97h-3.59
	c-1.635,0-2.969-1.334-2.969-2.97v-3.587c0-1.635,1.334-2.97,2.969-2.97h3.59c1.635,0.04,3.008,1.34,3.008,2.97H492.059z"/>
</svg>
