<?xml version="1.0" encoding="utf-8"?>
<!-- Generator: Adobe Illustrator 15.0.0, SVG Export Plug-In . SVG Version: 6.00 Build 0)  -->
<!DOCTYPE svg PUBLIC "-//W3C//DTD SVG 1.1//EN" "http://www.w3.org/Graphics/SVG/1.1/DTD/svg11.dtd">
<svg version="1.1" id="Layer_1" xmlns="http://www.w3.org/2000/svg" xmlns:xlink="http://www.w3.org/1999/xlink" x="0px" y="0px"
	 width="500px" height="238.037px" viewBox="0 0 500 238.037" enable-background="new 0 0 500 238.037" xml:space="preserve">
<path fill="#999999" d="M87.665,87.337h-4.871c-12.745,0-23.199,9.774-24.27,22.242c-7.761,4.076-13.07,12.209-13.07,21.6
	l0.017,0.083c-1.869,0.375-3.263,2.013-3.263,3.979c0,2.2,1.8,4.1,4.1,4.058h5.714c0.407,6.3,5.7,11.4,12.1,11.4
	c6.445,0,11.736-5.016,12.143-11.363h11.427c0.406,6.3,5.7,11.4,12.1,11.363c6.721,0,12.175-5.451,12.175-12.175
	c0-0.436-0.033-0.892-0.082-1.315c4.904-2.806,8.2-8.067,8.2-14.106v-11.039c0-1.979-1.592-3.571-3.57-3.571h-4.758
	C110.211,96.5,100,87.3,87.7,87.337H87.665z M81.17,95.539v16.15H66.56C66.56,103.3,73,96.3,81.2,95.5L81.17,95.539z
	 M89.286,111.688v-16.15c8.199,0.8,14.6,7.7,14.6,16.15H89.286z M68.184,138.475c0,2.24-1.82,4.06-4.059,4.1
	c-2.241,0-4.06-1.82-4.06-4.06c0-2.241,1.819-4.058,4.06-4.058c2.239-0.057,4.075,1.743,4.075,4.018H68.184z M103.899,138.5
	c0,2.24-1.82,4.06-4.061,4.06c-2.24,0-4.057-1.82-4.057-4.06c0-2.241,1.817-4.058,4.057-4.058c2.241-0.042,4.062,1.758,4.062,4.033
	L103.899,138.5z"/>
<path fill="#999999" d="M172.081,87.337h-4.871c-12.745,0-23.199,9.774-24.27,22.242c-7.761,4.076-13.07,12.209-13.07,21.6
	l0.017,0.083c-1.869,0.375-3.263,2.013-3.263,3.979c0,2.2,1.8,4.1,4.1,4.058h5.714c0.407,6.3,5.7,11.4,12.1,11.4
	c6.445,0,11.736-5.016,12.143-11.363h11.427c0.406,6.3,5.7,11.4,12.1,11.363c6.721,0,12.175-5.451,12.175-12.175
	c0-0.436-0.033-0.892-0.082-1.315c4.904-2.806,8.2-8.067,8.2-14.106v-11.039c0-1.979-1.592-3.571-3.57-3.571h-4.758
	C194.627,96.5,184.4,87.3,172.1,87.337H172.081z M165.586,95.539v16.15h-14.611c0-8.389,6.425-15.389,14.625-16.15H165.586z
	 M173.702,111.688v-16.15c8.199,0.8,14.6,7.7,14.6,16.1h-14.6V111.688z M152.6,138.475c0,2.24-1.82,4.06-4.059,4.06
	c-2.241,0-4.06-1.82-4.06-4.06c0-2.241,1.819-4.058,4.06-4.058C150.78,134.4,152.6,136.2,152.6,138.475z M188.314,138.475
	c0,2.24-1.82,4.06-4.061,4.06c-2.24,0-4.057-1.82-4.057-4.06c0-2.241,1.817-4.058,4.057-4.058c2.242-0.017,4.047,1.783,4.047,4.058
	H188.314z"/>
<path fill="#999999" d="M256.495,87.337h-4.871c-12.744,0-23.199,9.774-24.269,22.242c-7.761,4.076-13.07,12.209-13.07,21.6
	l0.017,0.083c-1.869,0.375-3.263,2.013-3.263,3.979c0,2.2,1.8,4.1,4.1,4.058h5.714c0.407,6.3,5.7,11.4,12.1,11.4
	c6.445,0,11.736-5.016,12.143-11.363h11.427c0.406,6.3,5.701,11.4,12.101,11.363c6.722,0,12.176-5.451,12.176-12.175
	c0-0.436-0.032-0.892-0.082-1.315c4.904-2.806,8.199-8.067,8.199-14.106v-11.039c0-1.979-1.592-3.571-3.569-3.571h-4.758
	C279.042,96.5,268.8,87.3,256.5,87.337H256.495z M250.001,95.539v16.15H235.39C235.39,103.3,241.8,96.3,250.001,95.539
	L250.001,95.539z M258.116,111.688v-16.15c8.198,0.8,14.6,7.7,14.6,16.1h-14.6V111.688z M237.015,138.475
	c0,2.24-1.82,4.06-4.059,4.06c-2.241,0-4.06-1.82-4.06-4.06c0-2.241,1.819-4.058,4.06-4.058c2.239-0.017,4.044,1.783,4.044,4.058
	H237.015z M272.729,138.475c0,2.24-1.819,4.06-4.061,4.06s-4.057-1.82-4.057-4.06c0-2.241,1.815-4.058,4.057-4.058
	s4.061,1.783,4.032,4.058H272.729z"/>
<path fill="#999999" d="M340.911,87.337h-4.871c-12.744,0-23.199,9.774-24.271,22.242c-7.762,4.076-13.069,12.209-13.069,21.6
	l0.018,0.083c-1.868,0.375-3.264,2.013-3.264,3.979c0,2.2,1.8,4.1,4.101,4.058h5.715c0.405,6.3,5.699,11.4,12.1,11.4
	c6.399,0,11.736-5.016,12.145-11.363h11.427c0.405,6.3,5.699,11.4,12.1,11.363c6.721,0,12.174-5.451,12.174-12.175
	c0-0.436-0.031-0.892-0.082-1.315c4.904-2.806,8.201-8.067,8.201-14.106v-11.039c0-1.979-1.592-3.571-3.57-3.571h-4.758
	C363.458,96.5,353.3,87.3,340.9,87.337H340.911z M334.417,95.539v16.15h-14.611c0-8.389,6.395-15.389,14.595-16.15H334.417z
	 M342.532,111.688v-16.15c8.199,0.8,14.6,7.7,14.6,16.1h-14.6V111.688z M321.431,138.475c0,2.24-1.819,4.06-4.061,4.06
	s-4.06-1.82-4.06-4.06c0-2.241,1.818-4.058,4.06-4.058s4.061,1.783,4.03,4.058H321.431z M357.146,138.475
	c0,2.24-1.82,4.06-4.062,4.06s-4.059-1.82-4.059-4.06c0-2.241,1.817-4.058,4.059-4.058s4.062,1.783,4.015,4.058H357.146z"/>
<path fill="#999999" d="M425.327,87.337h-4.871c-12.744,0-23.199,9.774-24.271,22.242c-7.762,4.076-13.069,12.209-13.069,21.6
	l0.018,0.083c-1.869,0.375-3.264,2.013-3.264,3.979c0,2.2,1.8,4.1,4.1,4.058h5.713c0.408,6.3,5.7,11.4,12.101,11.4
	c6.399,0,11.735-5.016,12.145-11.363h11.426c0.406,6.3,5.7,11.4,12.101,11.363c6.721,0,12.174-5.451,12.174-12.175
	c0-0.436-0.031-0.892-0.082-1.315c4.904-2.806,8.201-8.067,8.201-14.106v-11.039c0-1.979-1.592-3.571-3.57-3.571h-4.758
	C447.874,96.5,437.7,87.3,425.3,87.337H425.327z M418.833,95.539v16.15h-14.611c0-8.389,6.378-15.389,14.578-16.15H418.833z
	 M426.948,111.688v-16.15c8.199,0.8,14.6,7.7,14.6,16.1h-14.6V111.688z M405.847,138.475c0,2.24-1.819,4.06-4.061,4.06
	s-4.06-1.82-4.06-4.06c0-2.241,1.818-4.058,4.06-4.058s4.061,1.783,4.014,4.058H405.847z M441.562,138.475
	c0,2.24-1.82,4.06-4.062,4.06s-4.059-1.82-4.059-4.06c0-2.241,1.817-4.058,4.059-4.058s4.062,1.783,4.099,4.058H441.562z"/>
<path fill="#999999" d="M45.458,0h-4.871c-12.745,0-23.199,9.774-24.27,22.242c-7.761,4.076-13.07,12.209-13.07,21.59l0.017,0.1
	c-1.869,0.375-3.263,2.013-3.263,3.979c0,2.2,1.8,4.1,4.1,4.058h5.714c0.407,6.3,5.7,11.4,12.1,11.4
	c6.445,0,11.736-5.016,12.143-11.363h11.427c0.406,6.3,5.7,11.4,12.1,11.363c6.721,0,12.175-5.451,12.175-12.175
	c0-0.436-0.033-0.892-0.082-1.315c4.904-2.806,8.2-8.067,8.2-14.106V24.677c0-1.979-1.592-3.571-3.57-3.571H69.55
	C68.004,9.2,57.8,0,45.5,0H45.458z M38.963,8.201v16.15H24.352C24.352,15.9,30.8,9,39,8.201H38.963z M47.079,24.351V8.201
	c8.199,0.8,14.6,7.7,14.6,16.15H47.079z M25.977,51.138c0,2.24-1.82,4.06-4.059,4.1c-2.241,0-4.06-1.82-4.06-4.06
	c0-2.241,1.819-4.058,4.06-4.058C24.157,47.1,26,48.9,26,51.138H25.977z M61.691,51.1c0,2.24-1.82,4.06-4.061,4.06
	c-2.24,0-4.057-1.82-4.057-4.06c0-2.241,1.817-4.058,4.057-4.058c2.242,0.058,4.07,1.858,4.07,4.096L61.691,51.1z"/>
<path fill="#999999" d="M129.873,0h-4.871c-12.745,0-23.199,9.774-24.27,22.242c-7.761,4.076-13.07,12.209-13.07,21.59l0.017,0.1
	c-1.869,0.375-3.263,2.013-3.263,3.979c0,2.2,1.8,4.1,4.1,4.058h5.714c0.407,6.3,5.7,11.4,12.1,11.4
	c6.445,0,11.736-5.016,12.143-11.363H129.9c0.406,6.3,5.7,11.4,12.1,11.363c6.721,0,12.175-5.451,12.175-12.175
	c0-0.436-0.033-0.892-0.082-1.315c4.904-2.806,8.2-8.067,8.2-14.106V24.677c0-1.979-1.592-3.571-3.57-3.571h-4.758
	C152.419,9.2,142.2,0,129.9,0H129.873z M123.378,8.201v16.15h-14.611C108.768,15.9,115.2,9,123.4,8.2L123.378,8.201z
	 M131.494,24.351V8.201c8.199,0.8,14.6,7.7,14.6,16.15H131.494z M110.392,51.1c0,2.24-1.82,4.06-4.059,4.06
	c-2.241,0-4.06-1.82-4.06-4.06c0-2.241,1.819-4.058,4.06-4.058c2.239,0.058,4.067,1.858,4.067,4.096L110.392,51.1z M146.107,51.138
	c0,2.24-1.82,4.06-4.061,4.06c-2.24,0-4.057-1.82-4.057-4.06c0-2.241,1.817-4.058,4.057-4.058c2.241,0.02,4.054,1.82,4.054,4.058
	H146.107z"/>
<path fill="#999999" d="M214.288,0h-4.871c-12.745,0-23.199,9.774-24.27,22.242c-7.761,4.076-13.07,12.209-13.07,21.59l0.017,0.1
	c-1.869,0.375-3.263,2.013-3.263,3.979c0,2.2,1.8,4.1,4.1,4.058h5.714c0.407,6.3,5.7,11.4,12.1,11.4
	c6.445,0,11.736-5.016,12.143-11.363h11.427c0.406,6.3,5.7,11.4,12.1,11.363c6.721,0,12.175-5.451,12.175-12.175
	c0-0.436-0.033-0.892-0.082-1.315c4.904-2.806,8.2-8.067,8.2-14.106V24.677c0-1.979-1.592-3.571-3.57-3.571h-4.758
	C236.834,9.2,226.6,0,214.3,0H214.288z M207.793,8.201v16.15h-14.611C193.183,15.9,199.6,9,207.8,8.2L207.793,8.201z
	 M215.909,24.351V8.201c8.199,0.8,14.6,7.7,14.6,16.15H215.909z M194.807,51.1c0,2.24-1.82,4.06-4.059,4.06
	c-2.241,0-4.06-1.82-4.06-4.06c0-2.241,1.819-4.058,4.06-4.058c2.239,0.058,4.052,1.858,4.052,4.096L194.807,51.1z M230.522,51.138
	c0,2.24-1.82,4.06-4.061,4.06c-2.24,0-4.057-1.82-4.057-4.06c0-2.241,1.817-4.058,4.057-4.058c2.241,0.02,4.039,1.82,4.039,4.058
	H230.522z"/>
<path fill="#999999" d="M298.703,0h-4.871c-12.744,0-23.199,9.774-24.27,22.242c-7.762,4.076-13.069,12.209-13.069,21.6l0.017,0.083
	c-1.867,0.375-3.263,2.013-3.263,3.979c0,2.2,1.8,4.1,4.101,4.058h5.713c0.406,6.3,5.701,11.4,12.101,11.4
	s11.735-5.016,12.144-11.363h11.428c0.406,6.3,5.699,11.4,12.1,11.363c6.721,0,12.175-5.451,12.175-12.175
	c0-0.436-0.032-0.892-0.082-1.315c4.904-2.806,8.2-8.067,8.2-14.106V24.677c0-1.979-1.592-3.571-3.57-3.571h-4.758
	C321.25,9.2,311.1,0,298.7,0H298.703z M292.209,8.201v16.15h-14.611C277.598,15.9,284,9,292.2,8.2L292.209,8.201z M300.324,24.351
	V8.201c8.199,0.8,14.6,7.7,14.6,16.15H300.324z M279.223,51.138c0,2.24-1.82,4.06-4.06,4.1c-2.241,0-4.06-1.82-4.06-4.06
	c0-2.241,1.817-4.058,4.06-4.058c2.239-0.02,4.037,1.78,4.037,4.018H279.223z M314.938,51.1c0,2.24-1.819,4.06-4.061,4.06
	s-4.058-1.82-4.058-4.06c0-2.241,1.816-4.058,4.058-4.058s4.061,1.858,4.023,4.096L314.938,51.1z"/>
<path fill="#999999" d="M383.119,0h-4.871c-12.744,0-23.199,9.774-24.271,22.242c-7.762,4.076-13.069,12.209-13.069,21.59l0.018,0.1
	c-1.869,0.375-3.264,2.013-3.264,3.979c0,2.2,1.8,4.1,4.1,4.058h5.714c0.407,6.3,5.7,11.4,12.101,11.4
	c6.399,0,11.735-5.016,12.145-11.363h11.426c0.406,6.3,5.7,11.4,12.101,11.363c6.721,0,12.174-5.451,12.174-12.175
	c0-0.436-0.031-0.892-0.082-1.315c4.904-2.806,8.201-8.067,8.201-14.106V24.677c0-1.979-1.592-3.571-3.57-3.571h-4.758
	C405.666,9.2,395.5,0,383.1,0H383.119z M376.625,8.201v16.15h-14.611C362.014,15.9,368.4,9,376.6,8.2L376.625,8.201z M384.74,24.351
	V8.201c8.199,0.8,14.6,7.7,14.6,16.15H384.74z M363.639,51.138c0,2.24-1.819,4.06-4.061,4.1c-2.241,0.04-4.06-1.82-4.06-4.06
	c0-2.241,1.818-4.058,4.06-4.058s4.061,1.78,4.021,4.018H363.639z M399.354,51.1c0,2.24-1.819,4.06-4.061,4.06
	s-4.059-1.82-4.059-4.06c0-2.241,1.817-4.058,4.059-4.058s4.061,1.858,4.107,4.096L399.354,51.1z"/>
<path fill="#999999" d="M467.535,0h-4.871c-12.744,0-23.199,9.774-24.271,22.242c-7.762,4.076-13.069,12.209-13.069,21.59l0.018,0.1
	c-1.869,0.375-3.264,2.013-3.264,3.979c0,2.2,1.8,4.1,4.1,4.058h5.713c0.408,6.3,5.7,11.4,12.101,11.4
	c6.399,0,11.735-5.016,12.145-11.363h11.427c0.405,6.3,5.699,11.4,12.1,11.363c6.721,0,12.174-5.451,12.174-12.175
	c0-0.436-0.031-0.892-0.082-1.315c4.904-2.806,8.201-8.067,8.201-14.106V24.677c0-1.979-1.592-3.571-3.57-3.571h-4.758
	C490.082,9.2,479.9,0,467.5,0H467.535z M461.041,8.201v16.15H446.43C446.43,15.9,452.8,9,461,8.2L461.041,8.201z M469.156,24.351
	V8.201c8.199,0.8,14.6,7.7,14.6,16.15H469.156z M448.055,51.1c0,2.24-1.819,4.06-4.061,4.06s-4.06-1.82-4.06-4.06
	c0-2.241,1.818-4.058,4.06-4.058s4.061,1.858,4.105,4.096L448.055,51.1z M483.77,51.138c0,2.24-1.819,4.06-4.061,4.06
	s-4.059-1.82-4.059-4.06c0-2.241,1.817-4.058,4.059-4.058s4.061,1.82,4.091,4.058H483.77z"/>
<path id="car6" fill="#999999" d="M45.457,174.675h-4.871c-12.745,0-23.199,9.774-24.27,22.242c-7.761,4.076-13.07,12.209-13.07,21.6
	l0.017,0.083C1.395,219,0,220.6,0,222.567c0,2.2,1.8,4.1,4.1,4.058h5.714c0.407,6.3,5.7,11.4,12.1,11.4
	c6.445,0,11.736-5.016,12.143-11.363h11.427c0.406,6.3,5.7,11.4,12.1,11.363c6.721,0,12.175-5.451,12.175-12.175
	c0-0.436-0.033-0.892-0.082-1.315c4.904-2.806,8.2-8.067,8.2-14.106V199.39c0-1.979-1.592-3.571-3.57-3.571h-4.758
	C68.003,183.9,57.8,174.7,45.5,174.675H45.457z M38.962,182.876v16.15h-14.61c0-8.426,6.448-15.326,14.648-16.15H38.962z
	 M47.078,199.026v-16.15c8.199,0.8,14.6,7.7,14.6,16.1h-14.6V199.026z M25.976,225.812c0,2.24-1.82,4.06-4.059,4.06
	c-2.241,0-4.06-1.82-4.06-4.06c0-2.241,1.819-4.058,4.06-4.058C24.156,221.8,26,223.6,26,225.812H25.976z M61.691,225.812
	c0,2.24-1.82,4.06-4.061,4.06c-2.24,0-4.057-1.82-4.057-4.06c0-2.241,1.817-4.058,4.057-4.058c2.241,0.046,4.07,1.846,4.07,4.058
	H61.691z" class="active"/>
<path id="car5" fill="#999999" d="M129.873,174.675h-4.871c-12.745,0-23.199,9.774-24.27,22.242c-7.761,4.076-13.07,12.209-13.07,21.6
	l0.017,0.083c-1.869,0.375-3.263,2.013-3.263,3.979c0,2.2,1.8,4.1,4.1,4.058h5.714c0.407,6.3,5.7,11.4,12.1,11.4
	c6.445,0,11.736-5.016,12.143-11.363H129.9c0.406,6.3,5.7,11.4,12.1,11.363c6.721,0,12.175-5.451,12.175-12.175
	c0-0.436-0.033-0.892-0.082-1.315c4.904-2.806,8.2-8.067,8.2-14.106v-11.039c0-1.979-1.592-3.571-3.57-3.571h-4.758
	C152.419,183.9,142.2,174.7,129.9,174.675H129.873z M123.378,182.876v16.15h-14.611c0-8.426,6.433-15.326,14.633-16.15H123.378z
	 M131.494,199.026v-16.15c8.199,0.8,14.6,7.7,14.6,16.1h-14.6V199.026z M110.392,225.812c0,2.24-1.82,4.06-4.059,4.06
	c-2.241,0-4.06-1.82-4.06-4.06c0-2.241,1.819-4.058,4.06-4.058c2.239,0.046,4.067,1.846,4.067,4.058H110.392z M146.106,225.812
	c0,2.24-1.82,4.06-4.061,4.06c-2.24,0-4.057-1.82-4.057-4.06c0-2.241,1.817-4.058,4.057-4.058c2.242,0.046,4.055,1.846,4.055,4.058
	H146.106z" class="active"/>
<path id="car4" fill="#999999" d="M214.288,174.675h-4.871c-12.745,0-23.199,9.774-24.27,22.242c-7.761,4.076-13.07,12.209-13.07,21.6
	l0.017,0.083c-1.869,0.375-3.263,2.013-3.263,3.979c0,2.2,1.8,4.1,4.1,4.058h5.714c0.407,6.3,5.7,11.4,12.1,11.4
	c6.445,0,11.736-5.016,12.143-11.363h11.427c0.406,6.3,5.7,11.4,12.1,11.363c6.721,0,12.175-5.451,12.175-12.175
	c0-0.436-0.033-0.892-0.082-1.315c4.904-2.806,8.2-8.067,8.2-14.106v-11.039c0-1.979-1.592-3.571-3.57-3.571h-4.758
	c-1.546-11.931-11.78-21.131-24.08-21.156H214.288z M207.793,182.876v16.15h-14.611c0-8.426,6.418-15.326,14.618-16.15H207.793z
	 M215.909,199.026v-16.15c8.199,0.8,14.6,7.7,14.6,16.1h-14.6V199.026z M194.807,225.812c0,2.24-1.82,4.06-4.059,4.06
	c-2.241,0-4.06-1.82-4.06-4.06c0-2.241,1.819-4.058,4.06-4.058c2.239,0.046,4.052,1.846,4.052,4.058H194.807z M230.521,225.812
	c0,2.24-1.82,4.06-4.061,4.06c-2.24,0-4.057-1.82-4.057-4.06c0-2.241,1.817-4.058,4.057-4.058c2.242,0.046,4.04,1.846,4.04,4.058
	H230.521z" class="active"/>
<path id="car3" fill="#999999" d="M298.702,174.675h-4.871c-12.744,0-23.199,9.774-24.271,22.242c-7.76,4.076-13.067,12.209-13.067,21.6
	l0.016,0.083c-1.866,0.375-3.262,2.013-3.262,3.979c0,2.2,1.8,4.1,4.101,4.058h5.713c0.405,6.3,5.699,11.4,12.1,11.4
	s11.736-5.016,12.143-11.363h11.428c0.406,6.3,5.701,11.4,12.101,11.363c6.721,0,12.176-5.451,12.176-12.175
	c0-0.436-0.033-0.892-0.082-1.315c4.904-2.806,8.199-8.067,8.199-14.106v-11.039c0-1.979-1.592-3.571-3.57-3.571h-4.758
	C321.249,183.9,311.1,174.7,298.7,174.675H298.702z M292.208,182.876v16.15h-14.61c0-8.426,6.402-15.326,14.603-16.15H292.208z
	 M300.323,199.026v-16.15c8.199,0.8,14.6,7.7,14.6,16.1h-14.6V199.026z M279.223,225.812c0,2.24-1.82,4.06-4.06,4.06
	c-2.242,0-4.062-1.82-4.062-4.06c0-2.241,1.818-4.058,4.062-4.058c2.237,0.046,4.037,1.846,4.037,4.058H279.223z M314.938,225.812
	c0,2.24-1.82,4.06-4.062,4.06s-4.057-1.82-4.057-4.06c0-2.241,1.815-4.058,4.057-4.058s4.062,1.846,4.024,4.058H314.938z" class="active"/>
<path id="car2" fill="#999999" d="M383.118,174.675h-4.871c-12.744,0-23.199,9.774-24.271,22.2
	c-7.762,4.076-13.069,12.209-13.069,21.59l0.018,0.083c-1.869,0.375-3.264,2.013-3.264,3.979c0,2.2,1.8,4.1,4.1,4.058h5.715
	c0.406,6.3,5.7,11.4,12.101,11.363c6.399-0.037,11.736-5.016,12.145-11.363h11.427c0.405,6.3,5.699,11.4,12.1,11.4
	c6.721,0,12.174-5.451,12.174-12.175c0-0.436-0.031-0.892-0.082-1.315c4.904-2.806,8.201-8.067,8.201-14.106V199.35
	c0-1.979-1.592-3.571-3.57-3.571h-4.758C405.665,183.9,395.5,174.7,383.1,174.675H383.118z M376.624,182.876v16.15h-14.611
	c0-8.426,6.388-15.326,14.587-16.15H376.624z M384.739,199.026v-16.15c8.199,0.8,14.6,7.7,14.6,16.15H384.739z M363.638,225.812
	c0,2.24-1.819,4.06-4.061,4.06s-4.06-1.82-4.06-4.06c0-2.241,1.818-4.058,4.06-4.058s4.061,1.846,4.022,4.058H363.638z
	 M399.353,225.812c0,2.24-1.819,4.06-4.061,4.1s-4.059-1.82-4.059-4.06c0-2.241,1.817-4.058,4.059-4.058s4.061,1.806,4.108,4.018
	H399.353z" class="active"/>
<path id="car1" fill="#999999" d="M467.534,174.675h-4.871c-12.744,0-23.199,9.774-24.271,22.2
	c-7.762,4.076-13.069,12.209-13.069,21.59l0.018,0.083c-1.869,0.375-3.264,2.013-3.264,3.979c0,2.2,1.8,4.1,4.1,4.058h5.713
	c0.408,6.3,5.7,11.4,12.101,11.363c6.399-0.037,11.735-5.016,12.145-11.363h11.426c0.406,6.3,5.7,11.4,12.101,11.4
	c6.721,0,12.174-5.451,12.174-12.175c0-0.436-0.031-0.892-0.082-1.315c4.904-2.806,8.201-8.067,8.201-14.106V199.35
	c0-1.979-1.592-3.571-3.57-3.571h-4.758C490.081,183.9,479.9,174.7,467.5,174.675H467.534z M461.04,182.876v16.15h-14.611
	c0-8.426,6.371-15.326,14.571-16.15H461.04z M469.155,199.026v-16.15c8.198,0.8,14.6,7.7,14.6,16.15H469.155z M448.054,225.812
	c0,2.24-1.819,4.06-4.061,4.06s-4.06-1.82-4.06-4.06c0-2.241,1.818-4.058,4.06-4.058s4.061,1.846,4.106,4.058H448.054z
	 M483.769,225.812c0,2.24-1.819,4.06-4.061,4.1s-4.059-1.82-4.059-4.06c0-2.241,1.817-4.058,4.059-4.058s4.061,1.806,4.092,4.018
	H483.769z" class="active"/>
</svg>
