<?xml version="1.0" encoding="utf-8"?>
<!-- Generator: Adobe Illustrator 15.0.0, SVG Export Plug-In . SVG Version: 6.00 Build 0)  -->
<!DOCTYPE svg PUBLIC "-//W3C//DTD SVG 1.1//EN" "http://www.w3.org/Graphics/SVG/1.1/DTD/svg11.dtd">
<svg version="1.1" id="Layer_1" xmlns="http://www.w3.org/2000/svg" xmlns:xlink="http://www.w3.org/1999/xlink" x="0px" y="0px"
	 width="500px" height="246.847px" viewBox="0 0 500 246.847" enable-background="new 0 0 500 246.847" xml:space="preserve">
<path fill="#999999" d="M79.614,151.086v-6.507H99.17c1.773,0,3.222-1.465,3.222-3.254c0-0.895-0.361-1.709-0.945-2.294
	l-12.218-12.349h5.059c1.773,0,3.22-1.464,3.22-3.253c0-0.896-0.359-1.709-0.942-2.295l-12.217-12.347h5.057
	c1.773,0,3.222-1.498,3.222-3.336c0-0.912-0.36-1.74-0.944-2.344l-17.098-17.75c-1.269-1.3-3.319-1.3-4.587,0l-17.067,17.7
	c-0.601,0.601-0.976,1.448-0.976,2.375c0,1.8,1.4,3.3,3.2,3.336H60.2L48.05,121.1c-0.603,0.589-0.976,1.415-0.976,2.3
	c0,1.8,1.4,3.3,3.2,3.253h5.044l-12.171,12.315c-0.601,0.588-0.976,1.415-0.976,2.328c0,1.8,1.4,3.3,3.2,3.3h21.182v6.508
	c0,1.79-1.464,3.253-3.253,3.253H46.261c-2.247,0-4.068,1.822-4.068,4.067c0,2.2,1.8,4.1,4.1,4.068h69.96
	c2.245,0,4.066-1.822,4.066-4.068c0-2.245-1.822-4.067-4.068-4.067H82.866C81.077,154.3,79.6,152.9,79.6,151.1L79.614,151.086z"/>
<path fill="#999999" d="M163.995,151.086v-6.507h19.556c1.773,0,3.222-1.465,3.222-3.254c0-0.895-0.361-1.709-0.945-2.294
	l-12.218-12.349h5.059c1.773,0,3.22-1.464,3.22-3.253c0-0.896-0.359-1.709-0.942-2.295l-12.217-12.347h5.057
	c1.773,0,3.222-1.498,3.222-3.336c0-0.912-0.36-1.74-0.944-2.344l-17.098-17.75c-1.269-1.3-3.319-1.3-4.587,0l-17.067,17.7
	c-0.601,0.601-0.976,1.448-0.976,2.375c0,1.8,1.4,3.3,3.2,3.336h5.044l-12.15,12.332c-0.603,0.589-0.976,1.415-0.976,2.3
	c0,1.8,1.4,3.3,3.2,3.253h5.044l-12.171,12.315c-0.601,0.588-0.976,1.415-0.976,2.328c0,1.8,1.4,3.3,3.2,3.3h21.182v6.508
	c0,1.79-1.464,3.253-3.253,3.253h-17.082c-2.247,0-4.068,1.822-4.068,4.067c0,2.2,1.8,4.1,4.1,4.068h69.96
	c2.245,0,4.066-1.822,4.066-4.068c0-2.245-1.822-4.067-4.068-4.067h-33.353C165.458,154.3,164,152.9,164,151.1L163.995,151.086z"/>
<path fill="#999999" d="M248.375,151.086v-6.507h19.557c1.771,0,3.221-1.465,3.221-3.254c0-0.895-0.36-1.709-0.943-2.294
	l-12.219-12.349h5.059c1.773,0,3.221-1.464,3.221-3.253c0-0.896-0.358-1.709-0.941-2.295l-12.219-12.347h5.059
	c1.773,0,3.223-1.498,3.223-3.336c0-0.912-0.359-1.74-0.943-2.344l-17.098-17.75c-1.269-1.3-3.319-1.3-4.587,0l-17.067,17.7
	c-0.601,0.601-0.976,1.448-0.976,2.375c0,1.8,1.4,3.3,3.2,3.336h5.044L216.812,121.1c-0.603,0.589-0.976,1.415-0.976,2.3
	c0,1.8,1.4,3.3,3.2,3.253h5.044l-12.171,12.315c-0.601,0.588-0.976,1.415-0.976,2.328c0,1.8,1.4,3.3,3.2,3.3h21.182v6.508
	c0,1.79-1.464,3.253-3.253,3.253H214.98c-2.247,0-4.068,1.822-4.068,4.067c0,2.2,1.8,4.1,4.1,4.068h69.96
	c2.244,0,4.065-1.822,4.065-4.068c0-2.245-1.821-4.067-4.067-4.067h-33.354c-1.778-0.057-3.217-1.457-3.217-3.257L248.375,151.086z"
	/>
<path fill="#999999" d="M332.757,151.086v-6.507h19.556c1.772,0,3.223-1.465,3.223-3.254c0-0.895-0.361-1.709-0.944-2.294
	l-12.218-12.349h5.059c1.773,0,3.222-1.464,3.222-3.253c0-0.896-0.359-1.709-0.943-2.295l-12.217-12.347h5.057
	c1.773,0,3.224-1.498,3.224-3.336c0-0.912-0.359-1.74-0.944-2.344l-17.098-17.75c-1.27-1.3-3.319-1.3-4.588,0l-17.067,17.7
	c-0.602,0.601-0.977,1.448-0.977,2.375c0,1.8,1.4,3.3,3.2,3.336h5.044l-12.17,12.314c-0.604,0.589-0.977,1.415-0.977,2.3
	c0,1.8,1.4,3.3,3.201,3.253h5.045l-12.172,12.315c-0.602,0.588-0.977,1.415-0.977,2.328c0,1.8,1.4,3.3,3.2,3.3h21.182v6.508
	c0,1.79-1.464,3.253-3.254,3.253h-17.082c-2.247,0-4.067,1.822-4.067,4.067c0,2.2,1.8,4.1,4.1,4.068h69.961
	c2.244,0,4.066-1.822,4.066-4.068c0-2.245-1.822-4.067-4.068-4.067h-33.354c-1.759-0.039-3.179-1.439-3.179-3.239L332.757,151.086z"
	/>
<path fill="#999999" d="M417.138,151.086v-6.507h19.556c1.772,0,3.223-1.465,3.223-3.254c0-0.895-0.361-1.709-0.945-2.294
	l-12.217-12.349h5.059c1.773,0,3.222-1.464,3.222-3.253c0-0.896-0.359-1.709-0.943-2.295l-12.217-12.347h5.057
	c1.773,0,3.224-1.498,3.224-3.336c0-0.912-0.359-1.74-0.945-2.344l-17.098-17.75c-1.269-1.3-3.318-1.3-4.586,0l-17.068,17.7
	c-0.602,0.601-0.977,1.448-0.977,2.375c0,1.8,1.399,3.3,3.199,3.336h5.045l-12.17,12.314c-0.603,0.589-0.976,1.415-0.976,2.3
	c0,1.8,1.399,3.3,3.2,3.253h5.044l-12.171,12.315c-0.602,0.588-0.977,1.415-0.977,2.328c0,1.8,1.4,3.3,3.2,3.3h21.182v6.508
	c0,1.79-1.465,3.253-3.254,3.253h-17.082c-2.247,0-4.067,1.822-4.067,4.067c0,2.2,1.8,4.1,4.1,4.068h69.961
	c2.244,0,4.066-1.822,4.066-4.068c0-2.245-1.822-4.067-4.068-4.067H420.39c-1.789-0.039-3.29-1.439-3.29-3.239L417.138,151.086z"/>
<path fill="#999999" d="M37.423,66.705v-6.507h19.556c1.773,0,3.222-1.465,3.222-3.254c0-0.895-0.361-1.709-0.945-2.294
	L47.038,42.301h5.059c1.773,0,3.22-1.464,3.22-3.253c0-0.896-0.359-1.709-0.942-2.295L42.158,24.405h5.057
	c1.773,0,3.222-1.498,3.222-3.336c0-0.912-0.36-1.74-0.944-2.344L32.395,0.975c-1.269-1.3-3.319-1.3-4.587,0L10.74,18.7
	c-0.601,0.601-0.976,1.448-0.976,2.375c0,1.8,1.4,3.3,3.2,3.336h5.044L5.859,36.719c-0.603,0.589-0.976,1.415-0.976,2.3
	c0,1.8,1.4,3.3,3.2,3.253h5.044L0.978,54.616c-0.601,0.588-0.976,1.415-0.976,2.328c0,1.8,1.4,3.3,3.2,3.254h21.182v6.508
	c0,1.79-1.464,3.253-3.253,3.253H4.07c-2.247,0-4.068,1.822-4.068,4.067c0,2.2,1.8,4.1,4.1,4.068h69.96
	c2.245,0,4.066-1.822,4.066-4.068c0-2.245-1.822-4.067-4.068-4.067H40.676C38.887,70,37.4,68.5,37.4,66.705l0.023-0.005V66.705z"/>
<path fill="#999999" d="M121.804,66.705v-6.507h19.556c1.773,0,3.222-1.465,3.222-3.254c0-0.895-0.361-1.709-0.945-2.294
	l-12.218-12.349h5.059c1.773,0,3.22-1.464,3.22-3.253c0-0.896-0.359-1.709-0.942-2.295l-12.217-12.347h5.057
	c1.773,0,3.222-1.498,3.222-3.336c0-0.912-0.36-1.74-0.944-2.344l-17.098-17.75c-1.269-1.3-3.319-1.3-4.587,0L95.121,18.7
	c-0.601,0.601-0.976,1.448-0.976,2.375c0,1.8,1.4,3.3,3.2,3.336h5.044L90.24,36.719c-0.603,0.589-0.976,1.415-0.976,2.3
	c0,1.8,1.4,3.3,3.2,3.253h5.044l-12.15,12.344c-0.601,0.588-0.976,1.415-0.976,2.328c0,1.8,1.4,3.3,3.2,3.3h21.182v6.508
	c0,1.79-1.464,3.253-3.253,3.253h-17.06c-2.247,0-4.068,1.822-4.068,4.067c0,2.2,1.8,4.1,4.1,4.068h69.96
	c2.245,0,4.066-1.822,4.066-4.068c0-2.245-1.822-4.067-4.068-4.067h-33.353C123.268,70,121.8,68.5,121.8,66.7L121.804,66.705z"/>
<path id="tree11" fill="#999999" d="M206.185,66.705v-6.507h19.556c1.773,0,3.222-1.465,3.222-3.254c0-0.895-0.361-1.709-0.945-2.294
	L215.8,42.301h5.059c1.773,0,3.22-1.464,3.22-3.253c0-0.896-0.359-1.709-0.942-2.295L210.92,24.406h5.057
	c1.773,0,3.222-1.498,3.222-3.336c0-0.912-0.36-1.74-0.944-2.344l-17.098-17.75c-1.269-1.3-3.319-1.3-4.587,0l-17.067,17.7
	c-0.601,0.601-0.976,1.448-0.976,2.375c0,1.8,1.4,3.3,3.2,3.336h5.044l-12.169,12.314c-0.603,0.589-0.976,1.415-0.976,2.3
	c0,1.8,1.4,3.3,3.2,3.253h5.044l-12.171,12.315c-0.601,0.588-0.976,1.415-0.976,2.328c0,1.8,1.4,3.3,3.2,3.3h21.182v6.508
	c0,1.79-1.464,3.253-3.253,3.253H172.77c-2.247,0-4.068,1.822-4.068,4.067c0,2.2,1.8,4.1,4.1,4.068h69.96
	c2.245,0,4.066-1.822,4.066-4.068c0-2.245-1.822-4.067-4.068-4.067h-33.353C207.648,70,206.2,68.5,206.2,66.7L206.185,66.705z"/>
<path id="tree12" fill="#999999" d="M290.566,66.705v-6.507h19.556c1.771,0,3.222-1.465,3.222-3.254c0-0.895-0.36-1.709-0.943-2.294
	l-12.219-12.349h5.06c1.772,0,3.221-1.464,3.221-3.253c0-0.896-0.359-1.709-0.943-2.295l-12.217-12.347h5.058
	c1.772,0,3.223-1.498,3.223-3.336c0-0.912-0.359-1.74-0.943-2.344L285.54,0.976c-1.269-1.3-3.319-1.3-4.587,0l-17.068,17.7
	c-0.601,0.601-0.976,1.448-0.976,2.375c0,1.8,1.399,3.3,3.2,3.336h5.043l-12.17,12.314c-0.603,0.589-0.976,1.415-0.976,2.3
	c0,1.8,1.4,3.3,3.2,3.253h5.045L254.12,54.616c-0.601,0.588-0.976,1.415-0.976,2.328c0,1.8,1.399,3.3,3.199,3.3h21.182v6.508
	c0,1.79-1.463,3.253-3.254,3.253h-17.082c-2.246,0-4.067,1.822-4.067,4.067c0,2.2,1.8,4.1,4.101,4.068h69.96
	c2.244,0,4.066-1.822,4.066-4.068c0-2.245-1.822-4.067-4.068-4.067h-33.354C292.029,70,290.6,68.5,290.6,66.7L290.566,66.705z"/>
<path  fill="#999999" d="M374.947,66.705v-6.507h19.555c1.773,0,3.223-1.465,3.223-3.254c0-0.895-0.36-1.709-0.944-2.294
	l-12.218-12.349h5.06c1.772,0,3.221-1.464,3.221-3.253c0-0.896-0.358-1.709-0.942-2.295l-12.218-12.347h5.058
	c1.772,0,3.223-1.498,3.223-3.336c0-0.912-0.359-1.74-0.945-2.344L369.92,0.976c-1.268-1.3-3.318-1.3-4.586,0l-17.068,17.7
	c-0.602,0.601-0.977,1.448-0.977,2.375c0,1.8,1.4,3.3,3.2,3.336h5.045l-12.17,12.314c-0.604,0.589-0.977,1.415-0.977,2.3
	c0,1.8,1.4,3.3,3.2,3.253h5.044l-12.171,12.315c-0.601,0.588-0.976,1.415-0.976,2.328c0,1.8,1.399,3.3,3.199,3.3h21.183v6.508
	c0,1.79-1.465,3.253-3.254,3.253h-17.082c-2.247,0-4.068,1.822-4.068,4.067c0,2.2,1.8,4.1,4.101,4.068h69.961
	c2.243,0,4.065-1.822,4.065-4.068c0-2.245-1.822-4.067-4.067-4.067h-33.354C376.41,70,374.9,68.5,374.9,66.7L374.947,66.705z"/>
<path id="tree7" fill="#999999" d="M459.329,66.705v-6.507h19.555c1.773,0,3.224-1.465,3.224-3.254c0-0.895-0.361-1.709-0.945-2.294
	l-12.217-12.349h5.059c1.773,0,3.221-1.464,3.221-3.253c0-0.896-0.358-1.709-0.942-2.295l-12.217-12.347h5.057
	c1.772,0,3.223-1.498,3.223-3.336c0-0.912-0.358-1.74-0.944-2.344L454.3,0.975c-1.268-1.3-3.317-1.3-4.586,0l-17.067,17.7
	c-0.603,0.601-0.978,1.448-0.978,2.375c0,1.8,1.4,3.3,3.2,3.336h5.045L427.744,36.7c-0.604,0.589-0.978,1.415-0.978,2.3
	c0,1.8,1.4,3.3,3.2,3.253h5.045L422.84,54.568c-0.6,0.588-0.975,1.415-0.975,2.328c0,1.8,1.399,3.3,3.2,3.254h21.182v6.508
	c0,1.79-1.465,3.253-3.254,3.253h-17.082c-2.248,0-4.068,1.822-4.068,4.067c0,2.2,1.8,4.1,4.101,4.068h69.961
	c2.244,0,4.065-1.822,4.065-4.068c0-2.245-1.821-4.067-4.067-4.067h-33.354C460.792,70,459.3,68.5,459.3,66.7L459.329,66.705z"/>
<path id="tree6" fill="#999999" d="M37.422,235.467v-6.507h19.556c1.773,0,3.222-1.465,3.222-3.254c0-0.895-0.361-1.709-0.945-2.294
	l-12.218-12.349h5.059c1.773,0,3.22-1.464,3.22-3.253c0-0.896-0.359-1.709-0.942-2.295l-12.217-12.347h5.057
	c1.773,0,3.222-1.498,3.222-3.336c0-0.912-0.36-1.74-0.944-2.344l-17.098-17.75c-1.269-1.3-3.319-1.3-4.587,0l-17.067,17.7
	c-0.601,0.601-0.976,1.448-0.976,2.375c0,1.8,1.4,3.3,3.2,3.336h5.044l-12.15,12.332c-0.603,0.589-0.976,1.415-0.976,2.3
	c0,1.8,1.4,3.3,3.2,3.253h5.044L0.977,223.378c-0.601,0.588-0.976,1.415-0.976,2.328c0,1.8,1.4,3.3,3.2,3.3h21.182v6.508
	c0,1.79-1.464,3.253-3.253,3.253H4.069c-2.247,0-4.068,1.822-4.068,4.067c0,2.2,1.8,4.1,4.1,4.068h69.96
	c2.245,0,4.066-1.822,4.066-4.068c0-2.245-1.822-4.067-4.068-4.067H40.675C38.886,238.7,37.4,237.3,37.4,235.5L37.422,235.467z"/>
<path id="tree5" fill="#999999" d="M121.803,235.467v-6.507h19.556c1.773,0,3.222-1.465,3.222-3.254c0-0.895-0.361-1.709-0.945-2.294
	l-12.218-12.349h5.059c1.773,0,3.22-1.464,3.22-3.253c0-0.896-0.359-1.709-0.942-2.295l-12.217-12.347h5.057
	c1.773,0,3.222-1.498,3.222-3.336c0-0.912-0.36-1.74-0.944-2.344l-17.098-17.75c-1.269-1.3-3.319-1.3-4.587,0L95.12,187.5
	c-0.601,0.601-0.976,1.448-0.976,2.375c0,1.8,1.4,3.3,3.2,3.336h5.044l-12.169,12.314c-0.603,0.589-0.976,1.415-0.976,2.3
	c0,1.8,1.4,3.3,3.2,3.253h5.044l-12.171,12.315c-0.601,0.588-0.976,1.415-0.976,2.328c0,1.8,1.4,3.3,3.2,3.3h21.182v6.508
	c0,1.79-1.464,3.253-3.253,3.253H88.45c-2.247,0-4.068,1.822-4.068,4.067c0,2.2,1.8,4.1,4.1,4.068h69.96
	c2.245,0,4.066-1.822,4.066-4.068c0-2.245-1.822-4.067-4.068-4.067h-33.353c-1.82-0.082-3.287-1.482-3.287-3.282L121.803,235.467z"
	/>
<path id="tree4" fill="#999999" d="M206.184,235.467v-6.507h19.556c1.773,0,3.222-1.465,3.222-3.254
	c0-0.895-0.361-1.709-0.945-2.294l-12.218-12.349h5.059c1.773,0,3.22-1.464,3.22-3.253c0-0.896-0.359-1.709-0.942-2.295
	l-12.217-12.347h5.057c1.773,0,3.222-1.498,3.222-3.336c0-0.912-0.36-1.74-0.944-2.344l-17.098-17.75c-1.269-1.3-3.319-1.3-4.587,0
	l-17.067,17.719c-0.601,0.601-0.976,1.448-0.976,2.375c0,1.8,1.4,3.3,3.2,3.336h5.044l-12.169,12.3
	c-0.603,0.589-0.976,1.415-0.976,2.329c0,1.8,1.4,3.3,3.2,3.253h5.044l-12.171,12.315c-0.601,0.588-0.976,1.415-0.976,2.3
	c0,1.8,1.4,3.3,3.2,3.254h21.182v6.508c0,1.79-1.464,3.253-3.253,3.253h-17.082c-2.247,0-4.068,1.822-4.068,4.1
	c0,2.2,1.8,4.1,4.1,4.068h69.96c2.245,0,4.066-1.822,4.066-4.068c0-2.245-1.822-4.067-4.068-4.067h-33.353
	c-1.759-0.013-3.206-1.413-3.206-3.246H206.184z"/>
<path id="tree3" fill="#999999" d="M290.564,235.467v-6.507h19.557c1.771,0,3.222-1.465,3.222-3.254
	c0-0.895-0.36-1.709-0.943-2.294l-12.218-12.349h5.059c1.772,0,3.221-1.464,3.221-3.253c0-0.896-0.359-1.709-0.943-2.295
	L295.3,193.167h5.058c1.772,0,3.223-1.498,3.223-3.336c0-0.912-0.359-1.74-0.944-2.344l-17.098-17.75c-1.269-1.3-3.319-1.3-4.587,0
	l-17.068,17.719c-0.601,0.601-0.976,1.448-0.976,2.375c0,1.8,1.399,3.3,3.2,3.336h5.043l-12.17,12.3
	c-0.603,0.589-0.976,1.415-0.976,2.329c0,1.8,1.399,3.3,3.2,3.253h5.045l-12.172,12.315c-0.602,0.588-0.977,1.415-0.977,2.3
	c0,1.8,1.4,3.3,3.2,3.254h21.183v6.508c0,1.79-1.465,3.253-3.254,3.253h-17.082c-2.248,0-4.068,1.822-4.068,4.1
	c0,2.2,1.8,4.1,4.1,4.068h69.961c2.244,0,4.066-1.822,4.066-4.068c0-2.245-1.822-4.067-4.068-4.067h-33.354
	c-1.758-0.012-3.186-1.412-3.186-3.245H290.564z"/>
<path id="tree2" fill="#999999" d="M374.946,235.467v-6.507h19.555c1.773,0,3.223-1.465,3.223-3.254
	c0-0.895-0.36-1.709-0.944-2.294l-12.218-12.349h5.06c1.772,0,3.221-1.464,3.221-3.253c0-0.896-0.358-1.709-0.942-2.295
	l-12.218-12.347h5.058c1.772,0,3.223-1.498,3.223-3.336c0-0.912-0.359-1.74-0.945-2.344l-17.098-17.75c-1.268-1.3-3.318-1.3-4.586,0
	l-17.068,17.719c-0.602,0.601-0.977,1.448-0.977,2.375c0,1.8,1.399,3.3,3.2,3.336h5.045l-12.17,12.3
	c-0.604,0.589-0.977,1.415-0.977,2.329c0,1.8,1.4,3.3,3.2,3.253h5.044L338.5,223.378c-0.601,0.588-0.976,1.415-0.976,2.3
	c0,1.8,1.399,3.3,3.199,3.254h21.183v6.508c0,1.79-1.465,3.253-3.254,3.253H341.57c-2.247,0-4.068,1.822-4.068,4.1
	c0,2.2,1.8,4.1,4.1,4.068h69.962c2.243,0,4.065-1.822,4.065-4.068c0-2.245-1.822-4.067-4.068-4.067h-33.354
	c-1.798-0.026-3.307-1.426-3.307-3.259H374.946z"/>
<path id="tree1" fill="#999999" d="M459.328,235.467v-6.507h19.555c1.773,0,3.224-1.465,3.224-3.254
	c0-0.895-0.361-1.709-0.945-2.294l-12.217-12.349h5.059c1.773,0,3.221-1.464,3.221-3.253c0-0.896-0.358-1.709-0.942-2.295
	l-12.217-12.347h5.057c1.772,0,3.223-1.498,3.223-3.336c0-0.912-0.358-1.74-0.944-2.344l-17.099-17.75c-1.268-1.3-3.317-1.3-4.586,0
	l-17.068,17.719c-0.602,0.601-0.977,1.448-0.977,2.375c0,1.8,1.4,3.3,3.2,3.336h5.045l-12.17,12.3
	c-0.604,0.589-0.978,1.415-0.978,2.329c0,1.8,1.4,3.3,3.2,3.253h5.045l-12.172,12.315c-0.6,0.588-0.975,1.415-0.975,2.3
	c0,1.8,1.399,3.3,3.2,3.254h21.182v6.508c0,1.79-1.465,3.253-3.254,3.253h-17.082c-2.248,0-4.068,1.822-4.068,4.1
	c0,2.2,1.801,4.1,4.101,4.068h69.961c2.244,0,4.065-1.822,4.065-4.068c0-2.245-1.821-4.067-4.067-4.067H462.58
	c-1.789-0.013-3.28-1.413-3.28-3.246H459.328z"/>
</svg>
